<svg width="64" height="64" viewBox="0 0 64 64" fill="none" xmlns="http://www.w3.org/2000/svg">
  <defs>
    <linearGradient id="crystalGradBolder" x1="12" y1="12" x2="52" y2="52" gradientUnits="userSpaceOnUse">
      <stop offset="0%" stop-color="#A855F7"/>
      <stop offset="100%" stop-color="#3B82F6"/>
    </linearGradient>
  </defs>

  <circle cx="16" cy="16" r="2.2" fill="#A855F7" opacity="0.4" />
  <circle cx="48" cy="12" r="1.8" fill="#3B82F6" opacity="0.3" />
  <circle cx="54" cy="40" r="2.8" fill="#A855F7" opacity="0.5" />
  <circle cx="10" cy="45" r="2" fill="#3B82F6" opacity="0.4" />
  <circle cx="32" cy="8" r="1.8" fill="#A855F7" opacity="0.6" />
  <circle cx="32" cy="56" r="2.2" fill="#3B82F6" opacity="0.2" />

  <path 
    d="M32 6L54 32L32 58L10 32L32 6Z" 
    stroke="url(#crystalGradBolder)" 
    stroke-width="2.5" 
    stroke-linejoin="round"
  />
  
  <path 
    d="M10 32H54M32 6V58" 
    stroke="url(#crystalGradBolder)" 
    stroke-width="1.5" 
    stroke-dasharray="3 3" 
    opacity="0.6"
  />
  
  <path 
    d="M32 6L32 32M32 32L54 32M32 32L32 58M32 32L10 32" 
    stroke="url(#crystalGradBolder)" 
    stroke-width="2" 
    stroke-linecap="round"
  />

  <path 
    d="M32 6L43 45L32 58L21 45L32 6Z" 
    stroke="url(#crystalGradBolder)" 
    stroke-width="1.8" 
    stroke-opacity="0.8"
  />

  <circle cx="32" cy="32" r="3" fill="white" />
  <circle cx="32" cy="32" r="6" stroke="url(#crystalGradBolder)" stroke-width="1.5" opacity="0.5" />
</svg>